<mxfile host="app.diagrams.net" modified="2021-10-25T07:38:49.976Z" agent="5.0 (Windows NT 10.0; Win64; x64) AppleWebKit/537.36 (KHTML, like Gecko) Chrome/94.0.4606.81 Safari/537.36" etag="maT9VZnhgb9Zk1U4pyYo" version="15.5.9" type="github">
  <diagram id="kgpKYQtTHZ0yAKxKKP6v" name="Page-1">
    <mxGraphModel dx="1422" dy="882" grid="1" gridSize="10" guides="1" tooltips="1" connect="1" arrows="1" fold="1" page="1" pageScale="1" pageWidth="850" pageHeight="1100" math="0" shadow="0">
      <root>
        <mxCell id="0" />
        <mxCell id="1" parent="0" />
        <mxCell id="JTeI7WwKM75051Vj8dwf-1" value="&lt;font style=&quot;font-size: 24px&quot;&gt;&lt;b&gt;Field Fitness Trip&lt;/b&gt;&lt;/font&gt;" style="rounded=0;whiteSpace=wrap;html=1;" parent="1" vertex="1">
          <mxGeometry x="30" y="30" width="790" height="80" as="geometry" />
        </mxCell>
        <mxCell id="JTeI7WwKM75051Vj8dwf-5" value="Pool" style="swimlane;childLayout=stackLayout;resizeParent=1;resizeParentMax=0;horizontal=1;startSize=20;horizontalStack=0;fontSize=14;align=left;" parent="1" vertex="1">
          <mxGeometry x="40" y="150" width="780" height="570" as="geometry" />
        </mxCell>
        <mxCell id="JTeI7WwKM75051Vj8dwf-6" value="join" style="swimlane;startSize=20;horizontal=0;fontSize=14;align=left;" parent="JTeI7WwKM75051Vj8dwf-5" vertex="1">
          <mxGeometry y="20" width="780" height="180" as="geometry" />
        </mxCell>
        <mxCell id="JTeI7WwKM75051Vj8dwf-15" value="" style="edgeStyle=orthogonalEdgeStyle;rounded=0;orthogonalLoop=1;jettySize=auto;html=1;fontSize=14;" parent="JTeI7WwKM75051Vj8dwf-6" source="JTeI7WwKM75051Vj8dwf-12" target="JTeI7WwKM75051Vj8dwf-13" edge="1">
          <mxGeometry relative="1" as="geometry" />
        </mxCell>
        <mxCell id="JTeI7WwKM75051Vj8dwf-12" value="회원가입" style="rounded=0;whiteSpace=wrap;html=1;fontSize=14;align=center;" parent="JTeI7WwKM75051Vj8dwf-6" vertex="1">
          <mxGeometry x="50" y="20" width="120" height="60" as="geometry" />
        </mxCell>
        <mxCell id="JTeI7WwKM75051Vj8dwf-16" value="" style="edgeStyle=orthogonalEdgeStyle;rounded=0;orthogonalLoop=1;jettySize=auto;html=1;fontSize=14;" parent="JTeI7WwKM75051Vj8dwf-6" source="JTeI7WwKM75051Vj8dwf-13" target="JTeI7WwKM75051Vj8dwf-14" edge="1">
          <mxGeometry relative="1" as="geometry" />
        </mxCell>
        <mxCell id="JTeI7WwKM75051Vj8dwf-13" value="정보입력&lt;br&gt;(가이드/투어리스트 중에 하나&amp;nbsp; 선택)" style="rounded=0;whiteSpace=wrap;html=1;fontSize=14;align=center;" parent="JTeI7WwKM75051Vj8dwf-6" vertex="1">
          <mxGeometry x="200" y="20" width="170" height="60" as="geometry" />
        </mxCell>
        <mxCell id="JTeI7WwKM75051Vj8dwf-14" value="가입 완료" style="rounded=0;whiteSpace=wrap;html=1;fontSize=14;align=center;" parent="JTeI7WwKM75051Vj8dwf-6" vertex="1">
          <mxGeometry x="410" y="20" width="120" height="60" as="geometry" />
        </mxCell>
        <mxCell id="iaGCsSP20m_jxqkTr4Ug-3" style="edgeStyle=orthogonalEdgeStyle;rounded=0;orthogonalLoop=1;jettySize=auto;html=1;exitX=1;exitY=0.5;exitDx=0;exitDy=0;entryX=0.5;entryY=1;entryDx=0;entryDy=0;" edge="1" parent="JTeI7WwKM75051Vj8dwf-6" source="iaGCsSP20m_jxqkTr4Ug-1" target="JTeI7WwKM75051Vj8dwf-14">
          <mxGeometry relative="1" as="geometry" />
        </mxCell>
        <mxCell id="iaGCsSP20m_jxqkTr4Ug-1" value="투어리스트의 경우 상세 정보 입력" style="rounded=0;whiteSpace=wrap;html=1;fontSize=14;align=center;" vertex="1" parent="JTeI7WwKM75051Vj8dwf-6">
          <mxGeometry x="200" y="100" width="170" height="60" as="geometry" />
        </mxCell>
        <mxCell id="iaGCsSP20m_jxqkTr4Ug-2" value="" style="edgeStyle=orthogonalEdgeStyle;rounded=0;orthogonalLoop=1;jettySize=auto;html=1;" edge="1" parent="JTeI7WwKM75051Vj8dwf-6" source="JTeI7WwKM75051Vj8dwf-13" target="iaGCsSP20m_jxqkTr4Ug-1">
          <mxGeometry relative="1" as="geometry" />
        </mxCell>
        <mxCell id="JTeI7WwKM75051Vj8dwf-7" value="add item" style="swimlane;startSize=20;horizontal=0;fontSize=14;align=left;" parent="JTeI7WwKM75051Vj8dwf-5" vertex="1">
          <mxGeometry y="200" width="780" height="170" as="geometry" />
        </mxCell>
        <mxCell id="iaGCsSP20m_jxqkTr4Ug-4" style="edgeStyle=orthogonalEdgeStyle;rounded=0;orthogonalLoop=1;jettySize=auto;html=1;exitX=1;exitY=0.5;exitDx=0;exitDy=0;entryX=0;entryY=0.5;entryDx=0;entryDy=0;" edge="1" parent="JTeI7WwKM75051Vj8dwf-7" source="JTeI7WwKM75051Vj8dwf-17" target="JTeI7WwKM75051Vj8dwf-18">
          <mxGeometry relative="1" as="geometry" />
        </mxCell>
        <mxCell id="JTeI7WwKM75051Vj8dwf-17" value="가이드 모드시 여행 추가 가능" style="rounded=0;whiteSpace=wrap;html=1;fontSize=14;align=center;" parent="JTeI7WwKM75051Vj8dwf-7" vertex="1">
          <mxGeometry x="50" y="55" width="120" height="60" as="geometry" />
        </mxCell>
        <mxCell id="JTeI7WwKM75051Vj8dwf-21" value="" style="edgeStyle=orthogonalEdgeStyle;rounded=0;orthogonalLoop=1;jettySize=auto;html=1;fontSize=14;" parent="JTeI7WwKM75051Vj8dwf-7" source="JTeI7WwKM75051Vj8dwf-18" target="JTeI7WwKM75051Vj8dwf-20" edge="1">
          <mxGeometry relative="1" as="geometry" />
        </mxCell>
        <mxCell id="JTeI7WwKM75051Vj8dwf-18" value="여행 추가&lt;br&gt;(운동종류, 일자정보, 투어기간, 최소인원, 위치정보, 상세 일정 등록)" style="rounded=0;whiteSpace=wrap;html=1;fontSize=14;align=center;" parent="JTeI7WwKM75051Vj8dwf-7" vertex="1">
          <mxGeometry x="190" y="48" width="200" height="75" as="geometry" />
        </mxCell>
        <mxCell id="JTeI7WwKM75051Vj8dwf-20" value="여행 배포" style="rounded=0;whiteSpace=wrap;html=1;fontSize=14;align=center;" parent="JTeI7WwKM75051Vj8dwf-7" vertex="1">
          <mxGeometry x="430" y="55" width="120" height="60" as="geometry" />
        </mxCell>
        <mxCell id="JTeI7WwKM75051Vj8dwf-8" value="join item" style="swimlane;startSize=20;horizontal=0;fontSize=14;align=left;" parent="JTeI7WwKM75051Vj8dwf-5" vertex="1">
          <mxGeometry y="370" width="780" height="200" as="geometry" />
        </mxCell>
        <mxCell id="JTeI7WwKM75051Vj8dwf-27" value="운동별 등록된 항목들 조회" style="rounded=0;whiteSpace=wrap;html=1;fontSize=14;align=center;" parent="JTeI7WwKM75051Vj8dwf-8" vertex="1">
          <mxGeometry x="40" y="70" width="130" height="60" as="geometry" />
        </mxCell>
        <mxCell id="JTeI7WwKM75051Vj8dwf-25" value="알림 발생&lt;br&gt;(여행 속성을 알림 설정한 투어리스트에게 알림 발송)" style="rounded=0;whiteSpace=wrap;html=1;fontSize=14;align=center;" parent="1" vertex="1">
          <mxGeometry x="620" y="405" width="180" height="60" as="geometry" />
        </mxCell>
        <mxCell id="JTeI7WwKM75051Vj8dwf-26" value="" style="edgeStyle=orthogonalEdgeStyle;rounded=0;orthogonalLoop=1;jettySize=auto;html=1;fontSize=14;" parent="1" source="JTeI7WwKM75051Vj8dwf-20" target="JTeI7WwKM75051Vj8dwf-25" edge="1">
          <mxGeometry relative="1" as="geometry" />
        </mxCell>
        <mxCell id="JTeI7WwKM75051Vj8dwf-31" value="" style="edgeStyle=orthogonalEdgeStyle;rounded=0;orthogonalLoop=1;jettySize=auto;html=1;fontSize=14;" parent="1" source="JTeI7WwKM75051Vj8dwf-28" target="JTeI7WwKM75051Vj8dwf-30" edge="1">
          <mxGeometry relative="1" as="geometry" />
        </mxCell>
        <mxCell id="JTeI7WwKM75051Vj8dwf-28" value="항목 선택시 가이드정보 및 항목 기본정보, 현재 참여인원 등 상세 표현" style="rounded=0;whiteSpace=wrap;html=1;fontSize=14;align=center;" parent="1" vertex="1">
          <mxGeometry x="240" y="590" width="180" height="60" as="geometry" />
        </mxCell>
        <mxCell id="JTeI7WwKM75051Vj8dwf-29" value="" style="edgeStyle=orthogonalEdgeStyle;rounded=0;orthogonalLoop=1;jettySize=auto;html=1;fontSize=14;" parent="1" source="JTeI7WwKM75051Vj8dwf-27" target="JTeI7WwKM75051Vj8dwf-28" edge="1">
          <mxGeometry relative="1" as="geometry" />
        </mxCell>
        <mxCell id="JTeI7WwKM75051Vj8dwf-30" value="참여 기능&amp;nbsp; 활성화" style="rounded=0;whiteSpace=wrap;html=1;fontSize=14;align=center;" parent="1" vertex="1">
          <mxGeometry x="460" y="590" width="160" height="60" as="geometry" />
        </mxCell>
      </root>
    </mxGraphModel>
  </diagram>
</mxfile>
